<svg xmlns="http://www.w3.org/2000/svg" version="1.1" xmlns:xlink="http://www.w3.org/1999/xlink" xmlns:svgjs="http://svgjs.com/svgjs" width="1440" height="560" preserveAspectRatio="none" viewBox="0 0 1440 560"><g mask="url(&quot;#SvgjsMask1003&quot;)" fill="none"><path d="M673.79 608.19C839.17 583.36 932.09 189.68 1195.38 189.34 1458.66 189 1569.85 455.54 1716.96 463.74" stroke="rgba(253, 210, 7, 1)" stroke-width="2"></path><path d="M317.35 566.17C488.71 558.61 603.1 278.23 935.89 269.27 1268.68 260.31 1392.23 75.6 1554.43 73.27" stroke="rgba(253, 210, 7, 1)" stroke-width="2"></path><path d="M426.3 582.53C528.59 572.01 489.11 360.93 766.83 351.83 1044.55 342.73 1269.93 146.91 1447.89 144.63" stroke="rgba(253, 210, 7, 1)" stroke-width="2"></path><path d="M276.67 584C415.46 547.73 455.37 174.19 670.42 166.59 885.46 158.99 867.29 236.59 1064.16 236.59 1261.04 236.59 1357.93 166.86 1457.91 166.59" stroke="rgba(253, 210, 7, 1)" stroke-width="2"></path><path d="M469.99 630.9C660.63 604.28 767.52 160.05 1078.15 158.7 1388.78 157.35 1524.8 373.82 1686.31 377.1" stroke="rgba(253, 210, 7, 1)" stroke-width="2"></path></g><defs><mask id="SvgjsMask1003"><rect width="1440" height="560" fill="#ffffff"></rect></mask></defs></svg>