<svg xmlns="http://www.w3.org/2000/svg" version="1.1" xmlns:xlink="http://www.w3.org/1999/xlink" xmlns:svgjs="http://svgjs.com/svgjs" width="1440" height="560" preserveAspectRatio="none" viewBox="0 0 1440 560"><g mask="url(&quot;#SvgjsMask1003&quot;)" fill="none"><rect width="1440" height="560" x="0" y="0" fill="rgba(255, 255, 255, 1)"></rect><path d="M 0,149 C 57.6,128.8 172.8,47 288,48 C 403.2,49 460.8,144 576,154 C 691.2,164 748.8,100.4 864,98 C 979.2,95.6 1036.8,158.2 1152,142 C 1267.2,125.8 1382.4,42 1440,17L1440 560L0 560z" fill="rgba(253, 210, 7, 0.36)"></path><path d="M 0,419 C 96,434 288,500.2 480,494 C 672,487.8 768,382.2 960,388 C 1152,393.8 1344,496 1440,523L1440 560L0 560z" fill="rgba(253, 210, 7, 1)"></path></g><defs><mask id="SvgjsMask1003"><rect width="1440" height="560" fill="#ffffff"></rect></mask></defs></svg>