<svg xmlns="http://www.w3.org/2000/svg" version="1.1" xmlns:xlink="http://www.w3.org/1999/xlink" xmlns:svgjs="http://svgjs.com/svgjs" width="1440" height="560" preserveAspectRatio="none" viewBox="0 0 1440 560"><g mask="url(&quot;#SvgjsMask1027&quot;)" fill="none"><path d="M 0,245 C 57.6,264.4 172.8,390.2 288,342 C 403.2,293.8 460.8,3.6 576,4 C 691.2,4.4 748.8,294.2 864,344 C 979.2,393.8 1036.8,226.6 1152,253 C 1267.2,279.4 1382.4,431.4 1440,476L1440 560L0 560z" fill="rgba(253, 210, 7, 0.37)"></path><path d="M 0,68 C 48,140.6 144,436.4 240,431 C 336,425.6 384,57.6 480,41 C 576,24.4 624,307.2 720,348 C 816,388.8 864,246.2 960,245 C 1056,243.8 1104,344.6 1200,342 C 1296,339.4 1392,254 1440,232L1440 560L0 560z" fill="rgba(253, 210, 7, 1)"></path></g><defs><mask id="SvgjsMask1027"><rect width="1440" height="560" fill="#ffffff"></rect></mask></defs></svg>